<?xml version="1.0" encoding="UTF-8" standalone="no"?>
<!-- Generator: Adobe Illustrator 16.0.0, SVG Export Plug-In . SVG Version: 6.00 Build 0)  -->

<svg
   xmlns:dc="http://purl.org/dc/elements/1.1/"
   xmlns:cc="http://creativecommons.org/ns#"
   xmlns:rdf="http://www.w3.org/1999/02/22-rdf-syntax-ns#"
   xmlns:svg="http://www.w3.org/2000/svg"
   xmlns="http://www.w3.org/2000/svg"
   xmlns:sodipodi="http://sodipodi.sourceforge.net/DTD/sodipodi-0.dtd"
   xmlns:inkscape="http://www.inkscape.org/namespaces/inkscape"
   version="1.1"
   id="Layer_1"
   x="0px"
   y="0px"
   width="435.721px"
   height="85.242px"
   viewBox="62.402 -18.766 435.721 85.242"
   enable-background="new 62.402 -18.766 435.721 85.242"
   xml:space="preserve"
   inkscape:version="0.91 r13725"
   sodipodi:docname="logo-dark.svg"><metadata
     id="metadata3478"><rdf:RDF><cc:Work
         rdf:about=""><dc:format>image/svg+xml</dc:format><dc:type
           rdf:resource="http://purl.org/dc/dcmitype/StillImage" /><dc:title></dc:title></cc:Work></rdf:RDF></metadata><defs
     id="defs3476" /><sodipodi:namedview
     pagecolor="#ffffff"
     bordercolor="#666666"
     borderopacity="1"
     objecttolerance="10"
     gridtolerance="10"
     guidetolerance="10"
     inkscape:pageopacity="0"
     inkscape:pageshadow="2"
     inkscape:window-width="1780"
     inkscape:window-height="718"
     id="namedview3474"
     showgrid="false"
     inkscape:zoom="1.8429267"
     inkscape:cx="128.43397"
     inkscape:cy="46.461929"
     inkscape:window-x="0"
     inkscape:window-y="0"
     inkscape:window-maximized="0"
     inkscape:current-layer="Layer_1" /><rect
     style="fill:#486aa6;fill-opacity:1;fill-rule:evenodd;stroke:#ffffff;stroke-width:3;stroke-linecap:butt;stroke-linejoin:miter;stroke-opacity:1;stroke-miterlimit:4;stroke-dasharray:none"
     id="rect3480"
     width="53.990211"
     height="53.990211"
     x="78.951767"
     y="-3.1492097" /><text
     xml:space="preserve"
     style="font-style:normal;font-weight:normal;font-size:40.59893417px;line-height:92.00000167%;font-family:sans-serif;letter-spacing:0px;word-spacing:0px;fill:#000000;fill-opacity:1;stroke:none;stroke-width:1px;stroke-linecap:butt;stroke-linejoin:miter;stroke-opacity:1"
     x="105.68296"
     y="23.746841"
     id="text4282"
     sodipodi:linespacing="92.000002%"><tspan
       sodipodi:role="line"
       id="tspan4284"
       x="105.68296"
       y="23.746841"
       style="font-style:normal;font-variant:normal;font-weight:500;font-stretch:normal;font-size:25.37433434px;line-height:92.00000167%;font-family:WtKnollTextMedium;-inkscape-font-specification:'WtKnollTextMedium Medium';text-align:center;text-anchor:middle;fill:#ffffff;fill-opacity:1">JW</tspan><tspan
       sodipodi:role="line"
       x="105.68296"
       y="41.449673"
       id="tspan4286"
       style="font-style:normal;font-variant:normal;font-weight:500;font-stretch:normal;font-size:17.76203537px;line-height:92.00000167%;font-family:WtKnollTextMedium;-inkscape-font-specification:'WtKnollTextMedium Medium';text-align:center;text-anchor:middle;fill:#ffffff;fill-opacity:1">.ORG</tspan></text>
<circle
     style="fill:none;fill-opacity:1;stroke:#c6090c;stroke-width:7.02235031;stroke-miterlimit:4;stroke-dasharray:none;stroke-opacity:1"
     id="path4288"
     cx="106.08253"
     cy="23.981548"
     r="36.315598" /><path
     style="fill:none;fill-rule:evenodd;stroke:#c6090c;stroke-width:6.4000001;stroke-linecap:butt;stroke-linejoin:miter;stroke-miterlimit:4;stroke-dasharray:none;stroke-opacity:1"
     d="M 81.122225,-0.53698061 130.5002,48.298386 129.95758,48.027079"
     id="path4297"
     inkscape:connector-curvature="0"
     sodipodi:nodetypes="ccc" /><g
     transform="matrix(1.6962074,0,0,1.6962074,7.4410447,-33.570418)"
     style="font-style:normal;font-weight:normal;font-size:40px;line-height:125%;font-family:sans-serif;letter-spacing:0px;word-spacing:0px;fill:#2c2c3c;fill-opacity:1;stroke:none;stroke-width:1px;stroke-linecap:butt;stroke-linejoin:miter;stroke-opacity:1"
     id="flowRoot4301"><path
       d="m 89.075391,47.926215 0,-28.2 17.439999,0 0,5.12 -11.559999,0 0,6.32 10.239999,0 0,4.92 -10.239999,0 0,6.72 11.839999,0 0,5.12 -17.719999,0 z"
       style="font-style:normal;font-variant:normal;font-weight:bold;font-stretch:normal;font-family:WtKnollTextBold;-inkscape-font-specification:'WtKnollTextBold Bold';fill:#2c2c3c;fill-opacity:1"
       id="path4181" /><path
       d="m 122.49539,47.926215 -3.88,-7.12 -3.92,7.12 -6.08,0 6.72,-11 -6.4,-10.6 6.16,0 3.6,6.72 3.64,-6.72 6.04,0 -6.44,10.52 6.8,11.08 -6.24,0 z"
       style="font-style:normal;font-variant:normal;font-weight:bold;font-stretch:normal;font-family:WtKnollTextBold;-inkscape-font-specification:'WtKnollTextBold Bold';fill:#2c2c3c;fill-opacity:1"
       id="path4183" /><path
       d="m 129.61914,41.206215 0,-4.68 10.88,0 0,4.68 -10.88,0 z"
       style="font-style:normal;font-variant:normal;font-weight:bold;font-stretch:normal;font-family:WtKnollTextBold;-inkscape-font-specification:'WtKnollTextBold Bold';fill:#2c2c3c;fill-opacity:1"
       id="path4185" /><path
       d="m 152.81102,19.726215 5.92,0 0,18.4 q 0,2.28 -0.44,4.16 -0.44,1.88 -1.48,3.2 -1,1.32 -2.64,2.08 -1.6,0.72 -4,0.72 -2.6,0 -4.52,-0.56 -1.88,-0.6 -3.12,-1.52 l 1.64,-5.28 q 1.12,0.68 2.52,1.28 1.44,0.6 2.72,0.6 1.92,0 2.64,-1.28 0.76,-1.28 0.76,-3.68 l 0,-18.12 z"
       style="font-style:normal;font-variant:normal;font-weight:bold;font-stretch:normal;font-family:WtKnollTextBold;-inkscape-font-specification:'WtKnollTextBold Bold';fill:#2c2c3c;fill-opacity:1"
       id="path4187" /><path
       d="m 182.98789,48.006215 -4.12,-17.16 -4.24,17.16 -5.2,0 -7.96,-28.28 6.12,0 4.04,17.2 0.64,3.28 0.6,-3.32 3.56,-16.52 5.04,0 3.76,16.56 0.64,3.28 0.6,-3.28 3.84,-17.2 6,0 -8.04,28.28 -5.28,0 z"
       style="font-style:normal;font-variant:normal;font-weight:bold;font-stretch:normal;font-family:WtKnollTextBold;-inkscape-font-specification:'WtKnollTextBold Bold';fill:#2c2c3c;fill-opacity:1"
       id="path4189" /><path
       d="m 230.83977,44.486215 q -0.96,1 -1.96,1.72 -1,0.72 -2.12,1.2 -1.12,0.48 -2.44,0.68 -1.32,0.24 -2.92,0.24 -2.72,0 -5.04,-0.96 -2.32,-1 -4,-2.84 -1.68,-1.88 -2.64,-4.6 -0.96,-2.72 -0.96,-6.24 0,-3.28 0.96,-5.92 0.96,-2.64 2.64,-4.52 1.72,-1.88 4.04,-2.88 2.36,-1.04 5.12,-1.04 3.12,0 5.28,1.04 2.16,1.04 3.8,2.72 l -3.44,4.44 q -1.08,-1.16 -2.4,-1.92 -1.32,-0.8 -3.12,-0.84 -1.4,-0.04 -2.6,0.6 -1.16,0.64 -2.08,1.84 -0.88,1.2 -1.4,2.92 -0.48,1.68 -0.48,3.76 0,2.12 0.56,3.8 0.6,1.64 1.56,2.8 0.96,1.16 2.2,1.8 1.24,0.6 2.56,0.6 0.84,0 1.56,-0.16 0.72,-0.16 1.4,-0.48 0.68,-0.36 1.36,-0.88 0.72,-0.56 1.52,-1.32 l 3.04,4.44 z"
       style="font-style:normal;font-variant:normal;font-weight:bold;font-stretch:normal;font-family:WtKnollTextBold;-inkscape-font-specification:'WtKnollTextBold Bold';fill:#2c2c3c;fill-opacity:1"
       id="path4191" /><path
       d="m 245.51539,47.926215 0,-13 q 0,-3.84 -2.64,-3.84 -1.4,0 -2.48,0.96 -1.04,0.96 -1.04,2.88 l 0,13 -5.68,0 0,-29 5.68,0 0,9.68 q 0.16,-0.24 0.56,-0.68 0.4,-0.44 1,-0.88 0.64,-0.44 1.52,-0.76 0.88,-0.36 2.04,-0.36 1.48,0 2.72,0.52 1.24,0.52 2.12,1.48 0.92,0.92 1.4,2.28 0.48,1.32 0.48,3 l 0,14.72 -5.68,0 z"
       style="font-style:normal;font-variant:normal;font-weight:bold;font-stretch:normal;font-family:WtKnollTextBold;-inkscape-font-specification:'WtKnollTextBold Bold';fill:#2c2c3c;fill-opacity:1"
       id="path4193" /><path
       d="m 266.90477,47.926215 0,-1.92 q -0.92,1.04 -2.36,1.68 -1.4,0.64 -3.48,0.64 -1.24,0 -2.48,-0.44 -1.24,-0.44 -2.24,-1.32 -0.96,-0.88 -1.56,-2.16 -0.6,-1.32 -0.6,-3.08 0,-1.96 0.68,-3.36 0.72,-1.44 1.92,-2.36 1.2,-0.92 2.8,-1.36 1.64,-0.44 3.44,-0.44 1.84,0 3.92,0.44 l 0,-0.32 q 0,-1.92 -1.28,-2.72 -1.24,-0.8 -3.16,-0.8 -0.8,0 -1.64,0.12 -0.84,0.12 -1.68,0.28 -0.8,0.16 -1.48,0.36 -0.68,0.16 -1.12,0.32 l -0.76,-4.6 q 1.2,-0.32 3.24,-0.64 2.04,-0.32 4.28,-0.32 2.2,0 3.88,0.48 1.72,0.44 2.88,1.44 1.16,1 1.76,2.6 0.6,1.6 0.6,3.92 l 0,13.56 -5.56,0 z m 0.12,-9.48 q -0.76,-0.2 -1.64,-0.36 -0.84,-0.16 -1.68,-0.16 -0.8,0 -1.56,0.2 -0.72,0.16 -1.32,0.56 -0.56,0.36 -0.92,1 -0.36,0.64 -0.36,1.56 0,1.32 0.88,2 0.88,0.64 2,0.64 1.16,0.04 2,-0.32 0.88,-0.4 1.44,-1 0.6,-0.6 0.88,-1.32 0.28,-0.72 0.28,-1.44 l 0,-1.36 z"
       style="font-style:normal;font-variant:normal;font-weight:bold;font-stretch:normal;font-family:WtKnollTextBold;-inkscape-font-specification:'WtKnollTextBold Bold';fill:#2c2c3c;fill-opacity:1"
       id="path4195" /><path
       d="m 288.51852,47.926215 q -0.76,0.12 -2.12,0.24 -1.32,0.12 -2.6,0.12 -1.28,0 -2.4,-0.24 -1.12,-0.24 -1.96,-0.92 -0.8,-0.68 -1.28,-1.88 -0.44,-1.2 -0.44,-3.12 l 0,-11.32 -3.04,0 0,-4.48 3.04,0 0,-5.52 5.68,0 0,5.52 5.2,0 0,4.48 -5.2,0 0,10.56 q 0,0.52 0.2,0.88 0.24,0.32 0.6,0.56 0.36,0.2 0.8,0.32 0.44,0.08 0.88,0.08 0.68,0 1.32,-0.04 0.64,-0.04 1.32,-0.12 l 0,4.88 z"
       style="font-style:normal;font-variant:normal;font-weight:bold;font-stretch:normal;font-family:WtKnollTextBold;-inkscape-font-specification:'WtKnollTextBold Bold';fill:#2c2c3c;fill-opacity:1"
       id="path4197" /></g></svg>